<?xml version="1.0" standalone="no"?><!DOCTYPE svg PUBLIC "-//W3C//DTD SVG 1.1//EN" "http://www.w3.org/Graphics/SVG/1.1/DTD/svg11.dtd"><svg class="icon" width="200px" height="200.00px" viewBox="0 0 1024 1024" version="1.1" xmlns="http://www.w3.org/2000/svg"><path d="M906.314473 951.0912c-232.838982 90.852073-640.456145 90.852073-802.583273 15.327418-112.384-63.813818-135.265745-700.192582-33.442909-814.252218C145.240436 43.701527 873.122909 20.824436 939.752727 168.769164c52.116945 76.660364 110.140509 692.237964-33.438254 782.322036z" fill="#FFC481" /><path d="M990.864291 36.477673c-39.391418-42.361018-105.658182-44.767418-148.009891-5.376l-358.5536 333.405091a105.160145 105.160145 0 0 0-14.475636 16.658618l-0.684219-0.684218-1.419636 3.965672a104.280436 104.280436 0 0 0-16.095418 44.986182l-5.394618 49.152v68.859346h102.939927l67.570036-19.362909-1.154327-1.154328a105.644218 105.644218 0 0 0 11.343127-9.029818l358.548946-333.409745c42.361018-39.386764 44.772073-105.653527 5.385309-148.009891z" fill="#FF7B61" /></svg>